<?xml version="1.0" encoding="UTF-8" standalone="no"?>
<svg
   xmlns:dc="http://purl.org/dc/elements/1.1/"
   xmlns:cc="http://creativecommons.org/ns#"
   xmlns:rdf="http://www.w3.org/1999/02/22-rdf-syntax-ns#"
   xmlns:svg="http://www.w3.org/2000/svg"
   xmlns="http://www.w3.org/2000/svg"
   xmlns:sodipodi="http://sodipodi.sourceforge.net/DTD/sodipodi-0.dtd"
   xmlns:inkscape="http://www.inkscape.org/namespaces/inkscape"
   height="512px"
   id="Layer_1"
   style="enable-background:new 0 0 512 512;"
   version="1.1"
   viewBox="0 0 512 512"
   width="512px"
   xml:space="preserve"
   sodipodi:docname="rel.svg"
   inkscape:version="0.92.1 r15371"><metadata
     id="metadata90"><rdf:RDF><cc:Work
         rdf:about=""><dc:format>image/svg+xml</dc:format><dc:type
           rdf:resource="http://purl.org/dc/dcmitype/StillImage" /><dc:title></dc:title></cc:Work></rdf:RDF></metadata><defs
     id="defs88"><circle
       cx="250.189"
       cy="262.285"
       id="SVGID_1_"
       r="243" /><circle
       cx="250.189"
       cy="262.285"
       id="SVGID_3_"
       r="243" /><circle
       cx="250.189"
       cy="262.285"
       id="SVGID_5_"
       r="243" /><circle
       cx="250.189"
       cy="262.285"
       id="SVGID_7_"
       r="243" /><circle
       cx="250.189"
       cy="262.285"
       id="SVGID_9_"
       r="243" /><circle
       cx="250.189"
       cy="262.285"
       id="SVGID_11_"
       r="243" /><circle
       cx="250.189"
       cy="262.285"
       id="SVGID_13_"
       r="243" /><circle
       cx="250.189"
       cy="262.285"
       id="SVGID_15_"
       r="243" /><circle
       cx="250.189"
       cy="262.285"
       id="SVGID_17_"
       r="243" /><circle
       cx="250.189"
       cy="262.285"
       id="SVGID_19_"
       r="243" /></defs><sodipodi:namedview
     pagecolor="#ffffff"
     bordercolor="#666666"
     borderopacity="1"
     objecttolerance="10"
     gridtolerance="10"
     guidetolerance="10"
     inkscape:pageopacity="0"
     inkscape:pageshadow="2"
     inkscape:window-width="1366"
     inkscape:window-height="705"
     id="namedview86"
     showgrid="false"
     inkscape:zoom="0.23046875"
     inkscape:cx="-283.29864"
     inkscape:cy="114.71406"
     inkscape:window-x="-8"
     inkscape:window-y="-8"
     inkscape:window-maximized="1"
     inkscape:current-layer="Layer_1" /><g
     id="Layer_1_1_"><circle
       cx="256"
       cy="256"
       r="243"
       style="fill:#e34f50;fill-opacity:1"
       id="circle2" /></g><g
     id="Layer_2"><g
       id="Favorite" /><g
       id="g82"><g
         id="g10"><path
           d="M413.223,96.529v397.57c0,4.254-3.405,7.695-7.615,7.695H97.104c-4.21,0-7.615-3.441-7.615-7.695     V96.529c0-4.254,3.405-7.706,7.615-7.706h308.503C409.818,88.823,413.223,92.275,413.223,96.529z"
           style="fill:#f4b93d;fill-opacity:1"
           id="path6" /><path
           d="M413.223,96.529v397.57     c0,4.254-3.405,7.695-7.615,7.695H97.104c-4.21,0-7.615-3.441-7.615-7.695V96.529c0-4.254,3.405-7.706,7.615-7.706h308.503     C409.818,88.823,413.223,92.275,413.223,96.529z"
           style="opacity:0.3;fill:#f4b93d;adobe-blending-mode:multiply;enable-background:new;fill-opacity:1"
           id="path8" /></g><path
         d="M413.223,96.713v391.448c0,4.195-3.341,7.58-7.473,7.58H103.015c-4.131,0-7.473-3.384-7.473-7.58    V96.713c0-4.195,3.341-7.59,7.473-7.59H405.75C409.881,89.122,413.223,92.517,413.223,96.713z"
         style="fill:#b50208;fill-opacity:0"
         id="path12" /><rect
         height="344.414"
         style="opacity:0.3;adobe-blending-mode:multiply;enable-background:new    ;"
         width="268.29"
         x="115.128"
         y="109.922"
         id="rect14" /><rect
         height="338.361"
         style="fill:#FFFFFF;"
         width="262.237"
         x="121.181"
         y="109.922"
         id="rect16" /><g
         id="g22"><path
           d="M291.704,73.483v16.216c0,4.131-3.352,7.473-7.473,7.473H220.37c-4.121,0-7.473-3.341-7.473-7.473     V73.483c0-0.673,0.085-1.334,0.267-1.954c0.854-3.181,3.758-5.519,7.206-5.519h63.861c3.448,0,6.352,2.338,7.206,5.519     C291.619,72.148,291.704,72.81,291.704,73.483z"
           style="fill:#B2B6BA;"
           id="path18" /><path
           d="M291.704,73.483v16.216     c0,4.131-3.352,7.473-7.473,7.473H220.37c-4.121,0-7.473-3.341-7.473-7.473V73.483c0-0.673,0.085-1.334,0.267-1.954     c0.854-3.181,3.758-5.519,7.206-5.519h63.861c3.448,0,6.352,2.338,7.206,5.519C291.619,72.148,291.704,72.81,291.704,73.483z"
           style="opacity:0.4;fill:#B2B6BA;adobe-blending-mode:multiply;enable-background:new    ;"
           id="path20" /></g><path
         d="M291.704,73.483v16.216    c0,4.131-3.352,7.473-7.473,7.473H220.37c-4.121,0-7.473-3.341-7.473-7.473V73.483c0-0.673,0.085-1.334,0.267-1.954h78.273    C291.619,72.148,291.704,72.81,291.704,73.483z"
         style="opacity:0.5;fill:#B2B6BA;adobe-blending-mode:multiply;enable-background:new    ;"
         id="path24" /><path
         d="M312.628,89.122v28.845    c0,1.964-1.676,3.555-3.779,3.555c-2.028,0-3.672-1.516-3.758-3.416c-0.032,0-0.064,0.011-0.107,0.011h-5.242    c-0.075,1.89-1.719,3.405-3.758,3.405s-3.683-1.516-3.758-3.405h-5.348c-0.075,1.89-1.729,3.405-3.768,3.405    c-2.028,0-3.683-1.516-3.758-3.405h-5.348c-0.075,1.89-1.719,3.405-3.768,3.405c-2.028,0-3.672-1.516-3.747-3.405h-5.348    c-0.085,1.89-1.729,3.405-3.768,3.405c-2.028,0-3.683-1.516-3.758-3.405h-5.348c-0.075,1.89-1.729,3.405-3.768,3.405    c-2.028,0-3.672-1.516-3.758-3.405h-5.348c-0.075,1.89-1.719,3.405-3.758,3.405s-3.683-1.516-3.758-3.405h-5.348    c-0.096,1.89-1.729,3.405-3.768,3.405c-2.028,0-3.683-1.516-3.758-3.405h-5.348c-0.085,1.89-1.729,3.405-3.768,3.405    c-2.028,0-3.672-1.516-3.747-3.405h-5.252c-0.032,0-0.064-0.011-0.107-0.011c-0.075,1.9-1.719,3.416-3.758,3.416    c-2.092,0-3.779-1.591-3.779-3.555V89.122H312.628z"
         style="opacity:0.2;adobe-blending-mode:multiply;enable-background:new    ;"
         id="path26" /><path
         d="M312.628,82.77v34.29c0,1.964-1.644,3.555-3.694,3.555c-1.986,0-3.598-1.516-3.672-3.416    c-0.032,0-0.064,0.011-0.107,0.011h-5.124c-0.075,1.89-1.687,3.405-3.683,3.405c-1.986,0-3.598-1.516-3.672-3.405h-5.231    c-0.075,1.89-1.687,3.405-3.683,3.405c-1.986,0-3.598-1.516-3.672-3.405h-5.231c-0.075,1.89-1.687,3.405-3.683,3.405    c-1.986,0-3.598-1.516-3.672-3.405h-5.231c-0.075,1.89-1.687,3.405-3.683,3.405c-1.986,0-3.598-1.516-3.672-3.405h-5.231    c-0.075,1.89-1.687,3.405-3.683,3.405c-1.986,0-3.598-1.516-3.672-3.405h-5.231c-0.075,1.89-1.687,3.405-3.683,3.405    c-1.986,0-3.598-1.516-3.672-3.405h-5.231c-0.085,1.89-1.687,3.405-3.683,3.405c-1.986,0-3.598-1.516-3.672-3.405h-5.231    c-0.085,1.89-1.687,3.405-3.683,3.405c-1.986,0-3.598-1.516-3.672-3.405h-5.135c-0.032,0-0.064-0.011-0.096-0.011    c-0.075,1.9-1.687,3.416-3.683,3.416c-2.039,0-3.694-1.591-3.694-3.555V82.77c0-2.861,3.352-5.188,7.473-5.188h105.719    C309.286,77.582,312.628,79.909,312.628,82.77z"
         style="fill:#B2B6BA;"
         id="path28" /><path
         d="M312.628,82.77v6.053    c0-2.861-3.341-5.188-7.473-5.188H199.436c-4.121,0-7.473,2.327-7.473,5.188V82.77c0-2.861,3.352-5.188,7.473-5.188h105.719    C309.286,77.582,312.628,79.909,312.628,82.77z"
         style="opacity:0.5;fill:#B2B6BA;adobe-blending-mode:multiply;enable-background:new    ;"
         id="path30" /><rect
         height="6.832"
         style="opacity:0.5;fill:#B2B6BA;adobe-blending-mode:screen;enable-background:new    ;"
         width="120.665"
         x="191.963"
         y="101.548"
         id="rect32" /><rect
         height="113.211"
         style="opacity:0.7;fill:#df3536;enable-background:new;fill-opacity:1"
         width="76.337"
         x="143.896"
         y="155.454"
         id="rect34" /><rect
         height="7.116"
         style="opacity:0.7;fill:#9B85BE;enable-background:new    ;"
         width="119.68"
         x="241.581"
         y="155.454"
         id="rect36" /><rect
         height="7.116"
         style="opacity:0.7;fill:#9B85BE;enable-background:new    ;"
         width="119.68"
         x="241.581"
         y="170.586"
         id="rect38" /><rect
         height="7.116"
         style="opacity:0.7;fill:#9B85BE;enable-background:new    ;"
         width="119.68"
         x="241.581"
         y="185.718"
         id="rect40" /><rect
         height="7.116"
         style="opacity:0.7;fill:#9B85BE;enable-background:new    ;"
         width="119.68"
         x="241.581"
         y="200.851"
         id="rect42" /><rect
         height="7.116"
         style="opacity:0.7;fill:#9B85BE;enable-background:new    ;"
         width="119.68"
         x="241.581"
         y="215.983"
         id="rect44" /><rect
         height="7.116"
         style="opacity:0.7;fill:#9B85BE;enable-background:new    ;"
         width="119.68"
         x="241.581"
         y="231.116"
         id="rect46" /><rect
         height="7.116"
         style="opacity:0.7;fill:#9B85BE;enable-background:new    ;"
         width="119.68"
         x="241.581"
         y="246.248"
         id="rect48" /><rect
         height="7.116"
         style="opacity:0.7;fill:#9B85BE;enable-background:new    ;"
         width="119.68"
         x="241.581"
         y="261.381"
         id="rect50" /><rect
         height="7.116"
         style="opacity:0.7;fill:#9B85BE;enable-background:new    ;"
         width="217.365"
         x="143.896"
         y="295.858"
         id="rect52" /><rect
         height="7.116"
         style="opacity:0.7;fill:#9B85BE;enable-background:new    ;"
         width="217.365"
         x="143.896"
         y="310.99"
         id="rect54" /><rect
         height="7.116"
         style="opacity:0.7;fill:#9B85BE;enable-background:new    ;"
         width="217.365"
         x="143.896"
         y="326.123"
         id="rect56" /><rect
         height="7.116"
         style="opacity:0.7;fill:#9B85BE;enable-background:new    ;"
         width="217.365"
         x="143.896"
         y="341.255"
         id="rect58" /><rect
         height="3.558"
         style="opacity:0.7;fill:#9B85BE;enable-background:new    ;"
         width="242.363"
         x="131.397"
         y="432.582"
         id="rect62" /><g
         id="g66" /><rect
         id="rect4567"
         y="354.97665"
         x="143.896"
         width="217.36501"
         style="opacity:0.7;fill:#9b85be;enable-background:new"
         height="7.1160002" /><rect
         id="rect4569"
         y="370.10864"
         x="143.896"
         width="217.36501"
         style="opacity:0.7;fill:#9b85be;enable-background:new"
         height="7.1160002" /><rect
         id="rect4571"
         y="385.24164"
         x="143.896"
         width="217.36501"
         style="opacity:0.7;fill:#9b85be;enable-background:new"
         height="7.1160002" /><rect
         id="rect4573"
         y="400.37366"
         x="143.896"
         width="217.36501"
         style="opacity:0.7;fill:#9b85be;enable-background:new"
         height="7.1160002" /></g></g></svg>