<?xml version="1.0" encoding="UTF-8" standalone="no"?>
<svg
   xmlns:dc="http://purl.org/dc/elements/1.1/"
   xmlns:cc="http://creativecommons.org/ns#"
   xmlns:rdf="http://www.w3.org/1999/02/22-rdf-syntax-ns#"
   xmlns:svg="http://www.w3.org/2000/svg"
   xmlns="http://www.w3.org/2000/svg"
   xmlns:sodipodi="http://sodipodi.sourceforge.net/DTD/sodipodi-0.dtd"
   xmlns:inkscape="http://www.inkscape.org/namespaces/inkscape"
   height="512px"
   id="Layer_1"
   style="enable-background:new 0 0 512 512;"
   version="1.1"
   viewBox="0 0 512 512"
   width="512px"
   xml:space="preserve"
   sodipodi:docname="ger.svg"
   inkscape:version="0.92.1 r15371"><metadata
     id="metadata88"><rdf:RDF><cc:Work
         rdf:about=""><dc:format>image/svg+xml</dc:format><dc:type
           rdf:resource="http://purl.org/dc/dcmitype/StillImage" /><dc:title></dc:title></cc:Work></rdf:RDF></metadata><defs
     id="defs86"><circle
       r="243"
       id="SVGID_1_"
       cy="262.285"
       cx="250.189" /><circle
       r="243"
       id="SVGID_3_"
       cy="262.285"
       cx="250.189" /><circle
       r="243"
       id="SVGID_5_"
       cy="262.285"
       cx="250.189" /><circle
       r="243"
       id="SVGID_7_"
       cy="262.285"
       cx="250.189" /><circle
       r="243"
       id="SVGID_9_"
       cy="262.285"
       cx="250.189" /><circle
       r="243"
       id="SVGID_11_"
       cy="262.285"
       cx="250.189" /><circle
       r="243"
       id="SVGID_13_"
       cy="262.285"
       cx="250.189" /><circle
       r="243"
       id="SVGID_15_"
       cy="262.285"
       cx="250.189" /><circle
       r="243"
       id="SVGID_17_"
       cy="262.285"
       cx="250.189" /><circle
       r="243"
       id="SVGID_19_"
       cy="262.285"
       cx="250.189" /></defs><sodipodi:namedview
     pagecolor="#ffffff"
     bordercolor="#666666"
     borderopacity="1"
     objecttolerance="10"
     gridtolerance="10"
     guidetolerance="10"
     inkscape:pageopacity="0"
     inkscape:pageshadow="2"
     inkscape:window-width="1366"
     inkscape:window-height="705"
     id="namedview84"
     showgrid="false"
     inkscape:zoom="0.16296602"
     inkscape:cx="-1261.4916"
     inkscape:cy="-18.02717"
     inkscape:window-x="-8"
     inkscape:window-y="-8"
     inkscape:window-maximized="1"
     inkscape:current-layer="Layer_1" /><g
     id="Layer_1_1_"><circle
       cx="256"
       cy="261.504"
       r="243"
       style="fill:#E34F50;"
       id="circle2" /></g><g
     id="Layer_2"
     transform="matrix(1.2039693,0,0,1.2039693,-50.972946,-47.985117)"><g
       id="Favorite" /><g
       id="g80"><g
         id="g12"><g
           id="g10" /></g><rect
         height="255.8"
         style="fill:#cbcbcb"
         width="340.82001"
         x="82.709"
         y="102.302"
         id="rect14" /><g
         id="g20" /><g
         id="g28"><g
           style="opacity:0.6"
           id="g26" /></g><rect
         height="77.019997"
         style="fill:#ec8585;fill-opacity:1"
         width="340.82001"
         x="82.709999"
         y="152.847"
         id="rect32" /><path
         d="m 180.11,229.867 c 0,14.38 -7.72,26.96 -19.25,33.81 -5.87,3.49 -12.73,5.5 -20.06,5.5 -8.31,0 -16.02,-2.58 -22.36,-6.98 -10.24,-7.1 -16.94,-18.93 -16.94,-32.33 0,-21.71 17.6,-39.3 39.3,-39.3 21.71,0 39.31,17.59 39.31,39.3 z"
         style="fill:#f1f1f1"
         id="path48"
         inkscape:connector-curvature="0" /><ellipse
         cx="140.80299"
         cy="218.52699"
         rx="12.447"
         ry="16.037001"
         style="fill:#f4b93d"
         id="ellipse50" /><path
         d="m 163.34,254.177 c 0,3.2 -0.89,6.48 -2.48,9.5 -5.87,3.49 -12.73,5.5 -20.06,5.5 -8.31,0 -16.02,-2.58 -22.36,-6.98 -1.13,-2.6 -1.76,-5.33 -1.76,-8.02 0,-11 10.44,-17.08 23.33,-17.08 12.88,0 23.33,6.08 23.33,17.08 z"
         style="fill:#df3536;fill-opacity:1"
         id="path52"
         inkscape:connector-curvature="0" /><rect
         height="8.4969997"
         style="opacity:0.5;fill:#335c64;enable-background:new"
         width="85.920998"
         x="95.830002"
         y="286.90399"
         id="rect54" /><rect
         height="8.4969997"
         style="opacity:0.5;fill:#335c64;enable-background:new"
         width="85.920998"
         x="95.830002"
         y="306.74899"
         id="rect56" /><rect
         height="8.4969997"
         style="opacity:0.5;fill:#335c64;enable-background:new"
         width="85.920998"
         x="95.830002"
         y="326.59399"
         id="rect58" /><rect
         height="5.5970001"
         style="opacity:0.1;fill:#335c64;enable-background:new"
         width="195.22"
         x="213.03999"
         y="250.08299"
         id="rect60" /><rect
         height="5.5970001"
         style="opacity:0.1;fill:#335c64;enable-background:new"
         width="195.22"
         x="213.03999"
         y="263.15302"
         id="rect62" /><rect
         height="5.5970001"
         style="opacity:0.1;fill:#335c64;enable-background:new"
         width="195.22"
         x="213.03999"
         y="276.224"
         id="rect64" /><rect
         height="5.5970001"
         style="opacity:0.1;fill:#335c64;enable-background:new"
         width="195.22"
         x="213.03999"
         y="303.35199"
         id="rect66" /><rect
         height="5.5970001"
         style="opacity:0.1;fill:#335c64;enable-background:new"
         width="195.22"
         x="213.03999"
         y="316.423"
         id="rect68" /><rect
         height="5.5970001"
         style="opacity:0.1;fill:#335c64;enable-background:new"
         width="195.22"
         x="213.03999"
         y="329.49399"
         id="rect70" /><rect
         height="9.6300001"
         style="fill:#df3536;fill-opacity:1"
         width="59.48"
         x="90.306999"
         y="130.005"
         id="rect72" /><rect
         height="9.6300001"
         style="opacity:0.1;fill:#335c64;enable-background:new"
         width="59.48"
         x="166.214"
         y="130.005"
         id="rect74" /><rect
         height="9.6300001"
         style="opacity:0.1;fill:#335c64;enable-background:new"
         width="59.48"
         x="239.22"
         y="130.005"
         id="rect76" /><rect
         height="9.6300001"
         style="opacity:0.1;fill:#335c64;enable-background:new"
         width="59.48"
         x="310.64999"
         y="130.005"
         id="rect78" /></g></g></svg>